<svg width="92" height="27" viewBox="0 0 92 27" fill="none" xmlns="http://www.w3.org/2000/svg">
<path d="M9.342 7.364V9.83H4.194V12.494H8.046V14.888H4.194V20H1.116V7.364H9.342ZM15.5318 20.126C14.6078 20.126 13.7798 19.976 13.0478 19.676C12.3158 19.376 11.7278 18.932 11.2838 18.344C10.8518 17.756 10.6238 17.048 10.5998 16.22H13.8758C13.9238 16.688 14.0858 17.048 14.3618 17.3C14.6378 17.54 14.9978 17.66 15.4418 17.66C15.8978 17.66 16.2578 17.558 16.5218 17.354C16.7858 17.138 16.9178 16.844 16.9178 16.472C16.9178 16.16 16.8098 15.902 16.5938 15.698C16.3898 15.494 16.1318 15.326 15.8198 15.194C15.5198 15.062 15.0878 14.912 14.5238 14.744C13.7078 14.492 13.0418 14.24 12.5258 13.988C12.0098 13.736 11.5658 13.364 11.1938 12.872C10.8218 12.38 10.6358 11.738 10.6358 10.946C10.6358 9.77 11.0618 8.852 11.9138 8.192C12.7658 7.52 13.8758 7.184 15.2438 7.184C16.6358 7.184 17.7578 7.52 18.6098 8.192C19.4618 8.852 19.9178 9.776 19.9778 10.964H16.6478C16.6238 10.556 16.4738 10.238 16.1978 10.01C15.9218 9.77 15.5678 9.65 15.1357 9.65C14.7638 9.65 14.4638 9.752 14.2358 9.956C14.0078 10.148 13.8938 10.43 13.8938 10.802C13.8938 11.21 14.0858 11.528 14.4697 11.756C14.8538 11.984 15.4538 12.23 16.2698 12.494C17.0858 12.77 17.7458 13.034 18.2498 13.286C18.7658 13.538 19.2098 13.904 19.5818 14.384C19.9538 14.864 20.1398 15.482 20.1398 16.238C20.1398 16.958 19.9538 17.612 19.5818 18.2C19.2218 18.788 18.6938 19.256 17.9978 19.604C17.3018 19.952 16.4798 20.126 15.5318 20.126ZM39.422 7.364L36.128 20H32.402L30.386 11.684L28.298 20H24.572L21.368 7.364H24.662L26.48 16.562L28.73 7.364H32.114L34.274 16.562L36.11 7.364H39.422Z" fill="url(#paint0_linear_817_442)"/>
<path d="M49.7187 20.126C48.8427 20.126 48.0507 19.976 47.3427 19.676C46.6467 19.376 46.0947 18.944 45.6867 18.38C45.2787 17.816 45.0687 17.15 45.0567 16.382H47.7567C47.7927 16.898 47.9727 17.306 48.2967 17.606C48.6327 17.906 49.0887 18.056 49.6647 18.056C50.2527 18.056 50.7147 17.918 51.0507 17.642C51.3867 17.354 51.5547 16.982 51.5547 16.526C51.5547 16.154 51.4407 15.848 51.2127 15.608C50.9847 15.368 50.6967 15.182 50.3487 15.05C50.0127 14.906 49.5447 14.75 48.9447 14.582C48.1287 14.342 47.4627 14.108 46.9467 13.88C46.4427 13.64 46.0047 13.286 45.6327 12.818C45.2727 12.338 45.0927 11.702 45.0927 10.91C45.0927 10.166 45.2787 9.518 45.6507 8.966C46.0227 8.414 46.5447 7.994 47.2167 7.706C47.8887 7.406 48.6567 7.256 49.5207 7.256C50.8167 7.256 51.8667 7.574 52.6707 8.21C53.4867 8.834 53.9367 9.71 54.0207 10.838H51.2487C51.2247 10.406 51.0387 10.052 50.6907 9.776C50.3547 9.488 49.9047 9.344 49.3407 9.344C48.8487 9.344 48.4527 9.47 48.1527 9.722C47.8647 9.974 47.7207 10.34 47.7207 10.82C47.7207 11.156 47.8287 11.438 48.0447 11.666C48.2727 11.882 48.5487 12.062 48.8727 12.206C49.2087 12.338 49.6767 12.494 50.2767 12.674C51.0927 12.914 51.7587 13.154 52.2747 13.394C52.7907 13.634 53.2347 13.994 53.6067 14.474C53.9787 14.954 54.1647 15.584 54.1647 16.364C54.1647 17.036 53.9907 17.66 53.6427 18.236C53.2947 18.812 52.7847 19.274 52.1127 19.622C51.4407 19.958 50.6427 20.126 49.7187 20.126ZM59.2834 12.098V16.922C59.2834 17.258 59.3614 17.504 59.5174 17.66C59.6854 17.804 59.9614 17.876 60.3454 17.876H61.5154V20H59.9314C57.8074 20 56.7454 18.968 56.7454 16.904V12.098H55.5574V10.028H56.7454V7.562H59.2834V10.028H61.5154V12.098H59.2834ZM67.7559 20.162C66.7959 20.162 65.9319 19.952 65.1639 19.532C64.3959 19.1 63.7899 18.494 63.3459 17.714C62.9139 16.934 62.6979 16.034 62.6979 15.014C62.6979 13.994 62.9199 13.094 63.3639 12.314C63.8199 11.534 64.4379 10.934 65.2179 10.514C65.9979 10.082 66.8679 9.866 67.8279 9.866C68.7879 9.866 69.6579 10.082 70.4379 10.514C71.2179 10.934 71.8299 11.534 72.2739 12.314C72.7299 13.094 72.9579 13.994 72.9579 15.014C72.9579 16.034 72.7239 16.934 72.2559 17.714C71.7999 18.494 71.1759 19.1 70.3839 19.532C69.6039 19.952 68.7279 20.162 67.7559 20.162ZM67.7559 17.966C68.2119 17.966 68.6379 17.858 69.0339 17.642C69.4419 17.414 69.7659 17.078 70.0059 16.634C70.2459 16.19 70.3659 15.65 70.3659 15.014C70.3659 14.066 70.1139 13.34 69.6099 12.836C69.1179 12.32 68.5119 12.062 67.7919 12.062C67.0719 12.062 66.4659 12.32 65.9739 12.836C65.4939 13.34 65.2539 14.066 65.2539 15.014C65.2539 15.962 65.4879 16.694 65.9559 17.21C66.4359 17.714 67.0359 17.966 67.7559 17.966ZM77.3265 11.576C77.6505 11.048 78.0705 10.634 78.5865 10.334C79.1145 10.034 79.7145 9.884 80.3865 9.884V12.53H79.7205C78.9285 12.53 78.3285 12.716 77.9205 13.088C77.5245 13.46 77.3265 14.108 77.3265 15.032V20H74.8065V10.028H77.3265V11.576ZM91.3538 14.798C91.3538 15.158 91.3298 15.482 91.2818 15.77H83.9918C84.0518 16.49 84.3038 17.054 84.7478 17.462C85.1918 17.87 85.7378 18.074 86.3858 18.074C87.3218 18.074 87.9878 17.672 88.3838 16.868H91.1018C90.8138 17.828 90.2618 18.62 89.4458 19.244C88.6298 19.856 87.6278 20.162 86.4398 20.162C85.4798 20.162 84.6158 19.952 83.8478 19.532C83.0918 19.1 82.4978 18.494 82.0658 17.714C81.6458 16.934 81.4358 16.034 81.4358 15.014C81.4358 13.982 81.6458 13.076 82.0658 12.296C82.4858 11.516 83.0738 10.916 83.8298 10.496C84.5858 10.076 85.4558 9.866 86.4398 9.866C87.3878 9.866 88.2338 10.07 88.9778 10.478C89.7338 10.886 90.3158 11.468 90.7238 12.224C91.1438 12.968 91.3538 13.826 91.3538 14.798ZM88.7438 14.078C88.7318 13.43 88.4978 12.914 88.0418 12.53C87.5858 12.134 87.0278 11.936 86.3678 11.936C85.7438 11.936 85.2158 12.128 84.7838 12.512C84.3638 12.884 84.1058 13.406 84.0098 14.078H88.7438Z" fill="white"/>
<defs>
<linearGradient id="paint0_linear_817_442" x1="0" y1="13.5" x2="35.9839" y2="13.5" gradientUnits="userSpaceOnUse">
<stop stop-color="#5033C3"/>
<stop offset="1" stop-color="#8162FF"/>
</linearGradient>
</defs>
</svg>
